<svg version="1.1" xmlns="http://www.w3.org/2000/svg" viewBox="0 0 1251.9957885742188 333.7999794006347" width="1251.9957885742188" height="333.7999794006347">
  <!-- svg-source:excalidraw -->
  
  <defs>
    <style class="style-fonts">
      @font-face {
        font-family: "Virgil";
        src: url("https://file%2B.vscode-resource.vscode-cdn.net/home/ginkgo/.vscode/extensions/pomdtr.excalidraw-editor-3.7.3/public//dist/excalidraw-assets/Virgil.woff2");
      }
      @font-face {
        font-family: "Cascadia";
        src: url("https://file%2B.vscode-resource.vscode-cdn.net/home/ginkgo/.vscode/extensions/pomdtr.excalidraw-editor-3.7.3/public//dist/excalidraw-assets/Cascadia.woff2");
      }
      @font-face {
        font-family: "Assistant";
        src: url("https://file%2B.vscode-resource.vscode-cdn.net/home/ginkgo/.vscode/extensions/pomdtr.excalidraw-editor-3.7.3/public//dist/excalidraw-assets/Assistant-Regular.woff2");
      }
    </style>
    
  </defs>
  <rect x="0" y="0" width="1251.9957885742188" height="333.7999794006347" fill="#ffffff"></rect><g stroke-linecap="round" transform="translate(10 20.971317291259766) rotate(0 135.30474853515625 150.85718536376953)"><path d="M32 0 C100.18 1.51, 166.92 1.54, 238.61 0 M32 0 C94.24 0.04, 156.2 0.6, 238.61 0 M238.61 0 C258.83 0.42, 269.18 9.94, 270.61 32 M238.61 0 C259.48 -0.93, 271.83 10.76, 270.61 32 M270.61 32 C270.27 115.96, 268.91 202.12, 270.61 269.71 M270.61 32 C270.5 81.97, 270.32 132.51, 270.61 269.71 M270.61 269.71 C270.62 290.73, 260.86 301.16, 238.61 301.71 M270.61 269.71 C271.1 291.35, 260.9 300.44, 238.61 301.71 M238.61 301.71 C170.4 301.11, 105.93 300.47, 32 301.71 M238.61 301.71 C170.56 301.69, 103.49 302.5, 32 301.71 M32 301.71 C10.55 300.3, 1.4 290.08, 0 269.71 M32 301.71 C8.75 301.31, 2.12 289.22, 0 269.71 M0 269.71 C1.08 199.18, -0.13 127.13, 0 32 M0 269.71 C0.38 203.96, 1.06 138.8, 0 32 M0 32 C0.39 10.52, 9.25 -0.35, 32 0 M0 32 C-1.77 12.93, 12.59 -1.88, 32 0" stroke="#1e1e1e" stroke-width="2" fill="none"></path></g><g transform="translate(116.98477935791016 25.971317291259766) rotate(0 28.319969177246094 12.5)"><text x="28.319969177246094" y="0" font-family="Virgil, Segoe UI Emoji" font-size="20px" fill="#1e1e1e" text-anchor="middle" style="white-space: pre;" direction="ltr" dominant-baseline="text-before-edge">entity</text></g><g stroke-linecap="round" transform="translate(28.25714111328125 68.51420974731445) rotate(0 117.01913452148438 116.1143569946289)"><path d="M32 0 C83.94 2.05, 134.24 0.9, 202.04 0 M32 0 C67.52 -0.21, 104.34 0.45, 202.04 0 M202.04 0 C223.93 1.7, 235.87 11.26, 234.04 32 M202.04 0 C222 1.15, 235.65 8.5, 234.04 32 M234.04 32 C231.88 85.48, 232.05 141.36, 234.04 200.23 M234.04 32 C234.21 79.31, 233.69 125.96, 234.04 200.23 M234.04 200.23 C234.08 223.14, 223.78 231.49, 202.04 232.23 M234.04 200.23 C235.21 219.89, 221.35 232.52, 202.04 232.23 M202.04 232.23 C165.47 231.84, 128.04 230.47, 32 232.23 M202.04 232.23 C150.61 234.5, 99.84 234.31, 32 232.23 M32 232.23 C9.91 231.4, 0.87 223.37, 0 200.23 M32 232.23 C9.02 233.96, 0.95 222.76, 0 200.23 M0 200.23 C1.1 159.43, 0.87 121.13, 0 32 M0 200.23 C0.76 139.85, 1.87 80.49, 0 32 M0 32 C0.67 11.7, 10.28 0.39, 32 0 M0 32 C-0.36 10.38, 9.62 0.29, 32 0" stroke="#1e1e1e" stroke-width="2" fill="none"></path></g><g transform="translate(84.63634490966797 73.51420974731445) rotate(0 60.639930725097656 12.5)"><text x="60.639930725097656" y="0" font-family="Virgil, Segoe UI Emoji" font-size="20px" fill="#1e1e1e" text-anchor="middle" style="white-space: pre;" direction="ltr" dominant-baseline="text-before-edge">presentation</text></g><g stroke-linecap="round" transform="translate(48.38104248046875 123.67610549926758) rotate(0 97.2095947265625 79.23815155029297)"><path d="M32 0 C61.97 0.59, 91.5 -1.7, 162.42 0 M32 0 C60.4 -0.02, 87.35 0.34, 162.42 0 M162.42 0 C184.93 -1.13, 194.17 9.39, 194.42 32 M162.42 0 C183.2 -1.71, 194.66 10.66, 194.42 32 M194.42 32 C194.45 64.81, 194.89 97.55, 194.42 126.48 M194.42 32 C193.76 55.17, 192.5 78.34, 194.42 126.48 M194.42 126.48 C194.29 148.65, 185.54 159.5, 162.42 158.48 M194.42 126.48 C195.97 147.36, 185.15 156.58, 162.42 158.48 M162.42 158.48 C120.68 159.08, 75.29 156, 32 158.48 M162.42 158.48 C117.98 156.7, 74.65 156.52, 32 158.48 M32 158.48 C10.25 157.37, -1.71 149.33, 0 126.48 M32 158.48 C12.45 159.46, -0.71 148.09, 0 126.48 M0 126.48 C-0.2 102.17, 0.11 76.28, 0 32 M0 126.48 C0.05 104.5, -0.08 80.47, 0 32 M0 32 C-1.22 9.49, 10.37 1.46, 32 0 M0 32 C-1.5 11.6, 12.41 -0.65, 32 0" stroke="#1e1e1e" stroke-width="2" fill="none"></path></g><g transform="translate(114.15067291259766 128.67610549926758) rotate(0 31.439964294433594 12.5)"><text x="31.439964294433594" y="0" font-family="Virgil, Segoe UI Emoji" font-size="20px" fill="#1e1e1e" text-anchor="middle" style="white-space: pre;" direction="ltr" dominant-baseline="text-before-edge">source</text></g><g stroke-linecap="round" transform="translate(597.3482971191406 10) rotate(0 139.8762664794922 155.12380981445315)"><path d="M32 0 C107.6 -1.54, 182.96 -0.46, 247.75 0 M32 0 C107.42 1.71, 182.17 0.72, 247.75 0 M247.75 0 C271.07 0.52, 278.9 12.37, 279.75 32 M247.75 0 C267.68 -0.75, 278.89 10.2, 279.75 32 M279.75 32 C282.49 120.55, 282.16 208.96, 279.75 278.25 M279.75 32 C281.02 106.56, 281.33 180.83, 279.75 278.25 M279.75 278.25 C278.32 298.53, 270.8 310.08, 247.75 310.25 M279.75 278.25 C278.77 299.52, 268.89 310.02, 247.75 310.25 M247.75 310.25 C180.29 307.9, 115.4 309.52, 32 310.25 M247.75 310.25 C187.97 309.19, 128.91 310.13, 32 310.25 M32 310.25 C12.23 309.23, 0.75 299.21, 0 278.25 M32 310.25 C11.15 310.5, 0.55 301.02, 0 278.25 M0 278.25 C-0.99 185.97, 0.08 96.62, 0 32 M0 278.25 C-1.68 219.18, -0.96 160.79, 0 32 M0 32 C1.48 11.23, 12.07 -0.16, 32 0 M0 32 C-1.77 10.23, 10.59 2.28, 32 0" stroke="#1e1e1e" stroke-width="2" fill="none"></path></g><g transform="translate(667.7046432495117 15) rotate(0 69.5199203491211 12.5)"><text x="69.5199203491211" y="0" font-family="Virgil, Segoe UI Emoji" font-size="20px" fill="#1e1e1e" text-anchor="middle" style="white-space: pre;" direction="ltr" dominant-baseline="text-before-edge">template code</text></g><g stroke-linecap="round" transform="translate(947.0050048828125 10) rotate(0 147.49539184570312 153.59990501403806)"><path d="M32 0 C112.21 2.55, 191.1 2.19, 262.99 0 M32 0 C108.29 -1.99, 183.29 -1.5, 262.99 0 M262.99 0 C284.31 -0.93, 295.4 9.1, 294.99 32 M262.99 0 C282.33 0.31, 293.66 9.39, 294.99 32 M294.99 32 C296.25 97.69, 294.94 161.53, 294.99 275.2 M294.99 32 C297.1 102, 297.15 172.39, 294.99 275.2 M294.99 275.2 C295.11 298.25, 285.09 308.85, 262.99 307.2 M294.99 275.2 C297.09 297.91, 284.41 306.32, 262.99 307.2 M262.99 307.2 C181.74 310.23, 97.93 308.58, 32 307.2 M262.99 307.2 C215.18 306.22, 166.03 305.89, 32 307.2 M32 307.2 C11.66 308.59, -1.85 296.93, 0 275.2 M32 307.2 C11.86 307.78, -0.54 298.34, 0 275.2 M0 275.2 C-3.63 188.14, -2.62 101.27, 0 32 M0 275.2 C0.56 203.88, 0.21 133.21, 0 32 M0 32 C1.78 10.09, 9.36 0.62, 32 0 M0 32 C-1.34 11.69, 9.33 1.66, 32 0" stroke="#1e1e1e" stroke-width="2" fill="none"></path></g><g transform="translate(1010.3104934692383 15) rotate(0 84.18990325927734 12.5)"><text x="84.18990325927734" y="0" font-family="Virgil, Segoe UI Emoji" font-size="20px" fill="#1e1e1e" text-anchor="middle" style="white-space: pre;" direction="ltr" dominant-baseline="text-before-edge">template redered</text></g><g stroke-linecap="round" transform="translate(341.45721435546875 11.41881866455077) rotate(0 97.2095947265625 156.19058036804196)"><path d="M32 0 C76.81 1.86, 121.83 -0.27, 162.42 0 M32 0 C73.57 -0.62, 116.82 -0.2, 162.42 0 M162.42 0 C183.53 -1.8, 194.91 12.3, 194.42 32 M162.42 0 C185.95 -1.05, 193.84 10.77, 194.42 32 M194.42 32 C193.1 104.26, 193.07 176.9, 194.42 280.38 M194.42 32 C194.04 118.43, 194.2 204.58, 194.42 280.38 M194.42 280.38 C193.48 301.97, 182.37 312.8, 162.42 312.38 M194.42 280.38 C194.72 302.25, 182.23 310.97, 162.42 312.38 M162.42 312.38 C121.39 313.61, 76.26 310.1, 32 312.38 M162.42 312.38 C122.04 311.88, 82.56 310.95, 32 312.38 M32 312.38 C12.47 311.43, 0.96 302.06, 0 280.38 M32 312.38 C9.69 310.67, -0.11 303.03, 0 280.38 M0 280.38 C2.46 208.59, 1.76 138.17, 0 32 M0 280.38 C-1.58 188.25, -1.05 95.01, 0 32 M0 32 C1.01 10.87, 11.88 1.91, 32 0 M0 32 C-1.32 11.49, 10.58 2.07, 32 0" stroke="#1e1e1e" stroke-width="2" fill="none"></path></g><g transform="translate(351.3069076538086 16.41881866455077) rotate(0 87.35990142822266 25)"><text x="87.35990142822266" y="0" font-family="Virgil, Segoe UI Emoji" font-size="20px" fill="#1e1e1e" text-anchor="middle" style="white-space: pre;" direction="ltr" dominant-baseline="text-before-edge">presentation code</text><text x="87.35990142822266" y="25" font-family="Virgil, Segoe UI Emoji" font-size="20px" fill="#1e1e1e" text-anchor="middle" style="white-space: pre;" direction="ltr" dominant-baseline="text-before-edge">execution result</text></g><g stroke-linecap="round" transform="translate(371.8572692871094 150.476065826416) rotate(0 69.781005859375 17.371475219726562)"><path d="M8.69 0 C38.66 -0.93, 67.65 1.26, 130.88 0 M8.69 0 C38.72 -0.61, 69.11 -0.89, 130.88 0 M130.88 0 C135.88 -1.05, 140.65 2.33, 139.56 8.69 M130.88 0 C134.82 -2.14, 138.53 4.96, 139.56 8.69 M139.56 8.69 C138.88 14.73, 140.27 22.74, 139.56 26.06 M139.56 8.69 C139.35 15.78, 139.78 22.91, 139.56 26.06 M139.56 26.06 C141.42 30.17, 135.5 33.24, 130.88 34.74 M139.56 26.06 C141.43 29.93, 138.15 34.18, 130.88 34.74 M130.88 34.74 C89.29 34.06, 50.47 36.64, 8.69 34.74 M130.88 34.74 C91.56 35.55, 54.31 34.79, 8.69 34.74 M8.69 34.74 C4.27 36.23, -1.63 33.64, 0 26.06 M8.69 34.74 C4.93 36.67, -0.75 29.73, 0 26.06 M0 26.06 C0.36 20.42, -1.61 17.8, 0 8.69 M0 26.06 C0.7 21.44, 0.39 17.42, 0 8.69 M0 8.69 C1.01 2.83, 3.42 0.78, 8.69 0 M0 8.69 C-1.05 2.61, 1.55 1.81, 8.69 0" stroke="#1e1e1e" stroke-width="2" fill="none"></path></g><g transform="translate(385.3882751464844 158.24754104614254) rotate(0 56.25 9.599999999999994)"><text x="56.25" y="0" font-family="Cascadia, Segoe UI Emoji" font-size="16px" fill="#1e1e1e" text-anchor="middle" style="white-space: pre;" direction="ltr" dominant-baseline="text-before-edge">simple value</text></g><g stroke-linecap="round" transform="translate(371.3333740234375 196.6443041483561) rotate(0 69.781005859375 17.371475219726577)"><path d="M8.69 0 C41.27 0.53, 75.42 1.63, 130.88 0 M8.69 0 C43.06 0.31, 76.39 1.05, 130.88 0 M130.88 0 C134.67 -0.3, 137.58 1.8, 139.56 8.69 M130.88 0 C134.59 1.48, 139.81 2.78, 139.56 8.69 M139.56 8.69 C139.77 12.42, 138.01 15.2, 139.56 26.06 M139.56 8.69 C138.82 12.29, 139.67 16.58, 139.56 26.06 M139.56 26.06 C140.7 33.62, 136.76 33.52, 130.88 34.74 M139.56 26.06 C139.14 30.93, 137.7 34.26, 130.88 34.74 M130.88 34.74 C101.03 34.74, 70.75 33.22, 8.69 34.74 M130.88 34.74 C105.98 36.36, 81.19 36.47, 8.69 34.74 M8.69 34.74 C1.36 33.51, 1.13 31.47, 0 26.06 M8.69 34.74 C3.79 32.98, -1.85 32.9, 0 26.06 M0 26.06 C-1.46 22.64, -0.71 19.7, 0 8.69 M0 26.06 C0.6 19.86, 0.59 13.92, 0 8.69 M0 8.69 C-0.43 4.04, 2.09 -1.17, 8.69 0 M0 8.69 C0.37 4.35, 3.06 0.93, 8.69 0" stroke="#1e1e1e" stroke-width="2" fill="none"></path></g><g transform="translate(412.9893798828125 204.41577936808264) rotate(0 28.125 9.600000000000009)"><text x="28.125" y="0" font-family="Cascadia, Segoe UI Emoji" font-size="16px" fill="#1e1e1e" text-anchor="middle" style="white-space: pre;" direction="ltr" dominant-baseline="text-before-edge">object</text></g><g stroke-linecap="round" transform="translate(372.94287109375 247.94106725056963) rotate(0 69.781005859375 17.371475219726562)"><path d="M8.69 0 C43.4 1.48, 82.35 0.67, 130.88 0 M8.69 0 C54.25 -1.53, 97.79 -1.67, 130.88 0 M130.88 0 C138.55 0.02, 138.11 0.93, 139.56 8.69 M130.88 0 C138.39 -0.86, 138.25 2.46, 139.56 8.69 M139.56 8.69 C140.95 15.41, 140.77 21.64, 139.56 26.06 M139.56 8.69 C139.66 13.41, 139.58 17.27, 139.56 26.06 M139.56 26.06 C140.82 31.72, 137.51 34.28, 130.88 34.74 M139.56 26.06 C141.26 30.22, 134.52 34.94, 130.88 34.74 M130.88 34.74 C91.34 36.44, 48.19 36.54, 8.69 34.74 M130.88 34.74 C103.75 34.32, 77.04 34.12, 8.69 34.74 M8.69 34.74 C2.19 35.91, 1.18 30.68, 0 26.06 M8.69 34.74 C0.98 36.23, -2.08 31.04, 0 26.06 M0 26.06 C0.05 21.71, -1.76 16.75, 0 8.69 M0 26.06 C-0.27 19.87, -0.12 15.28, 0 8.69 M0 8.69 C-0.95 4.57, 4.84 -0.06, 8.69 0 M0 8.69 C-0.42 4.93, 4.8 2.16, 8.69 0" stroke="#1e1e1e" stroke-width="2" fill="none"></path></g><g transform="translate(419.286376953125 255.71254247029617) rotate(0 23.4375 9.599999999999994)"><text x="23.4375" y="0" font-family="Cascadia, Segoe UI Emoji" font-size="16px" fill="#1e1e1e" text-anchor="middle" style="white-space: pre;" direction="ltr" dominant-baseline="text-before-edge">array</text></g><g stroke-linecap="round" transform="translate(663.1622314453125 150.476065826416) rotate(0 69.781005859375 17.371475219726562)"><path d="M8.69 0 C55.73 -0.71, 101.82 1.08, 130.88 0 M8.69 0 C43.55 -1.06, 79.29 -0.74, 130.88 0 M130.88 0 C136.78 -1.76, 140.43 1.35, 139.56 8.69 M130.88 0 C135.65 -0.91, 141.76 4.1, 139.56 8.69 M139.56 8.69 C138.73 12.93, 138.77 19.45, 139.56 26.06 M139.56 8.69 C140.35 13.59, 140.38 16.52, 139.56 26.06 M139.56 26.06 C140.02 30.42, 135.12 36.47, 130.88 34.74 M139.56 26.06 C139.77 31.02, 136.86 35.19, 130.88 34.74 M130.88 34.74 C83.79 33.18, 37.98 34.76, 8.69 34.74 M130.88 34.74 C99.41 33.31, 67.97 33.64, 8.69 34.74 M8.69 34.74 C2.43 33.81, -1.18 31.73, 0 26.06 M8.69 34.74 C1.05 36.29, 2.19 33.67, 0 26.06 M0 26.06 C-1.15 22.93, -1.75 19.1, 0 8.69 M0 26.06 C0.54 20.49, 0.29 15.53, 0 8.69 M0 8.69 C1.8 2.66, 4.24 1.62, 8.69 0 M0 8.69 C2.26 1.59, 5.19 -1.22, 8.69 0" stroke="#1e1e1e" stroke-width="2" fill="none"></path></g><g transform="translate(709.5057373046875 158.24754104614254) rotate(0 23.4375 9.599999999999994)"><text x="23.4375" y="0" font-family="Cascadia, Segoe UI Emoji" font-size="16px" fill="#1e1e1e" text-anchor="middle" style="white-space: pre;" direction="ltr" dominant-baseline="text-before-edge">{{.}}</text></g><g stroke-linecap="round" transform="translate(665.1622314453125 196.6443041483561) rotate(0 69.781005859375 17.371475219726577)"><path d="M8.69 0 C38.2 -0.45, 64.62 0.27, 130.88 0 M8.69 0 C50.25 -1.1, 91.85 -0.16, 130.88 0 M130.88 0 C138.01 1.19, 139.12 4.59, 139.56 8.69 M130.88 0 C137.14 2.23, 141.56 5.06, 139.56 8.69 M139.56 8.69 C138.32 14.56, 140.34 20.33, 139.56 26.06 M139.56 8.69 C138.79 12.93, 139.52 17.18, 139.56 26.06 M139.56 26.06 C139.4 30.29, 136.03 32.88, 130.88 34.74 M139.56 26.06 C141.68 33.71, 136.88 33.23, 130.88 34.74 M130.88 34.74 C92.03 35.95, 55.13 35.43, 8.69 34.74 M130.88 34.74 C99.48 34.91, 67.48 34.23, 8.69 34.74 M8.69 34.74 C1.4 33.56, -1.76 32.03, 0 26.06 M8.69 34.74 C4.14 36.84, -0.66 33.02, 0 26.06 M0 26.06 C-0.19 22.68, 0.31 17.02, 0 8.69 M0 26.06 C0.04 18.9, 0.2 11.82, 0 8.69 M0 8.69 C-0.54 1.3, 4.3 -1.76, 8.69 0 M0 8.69 C-1.59 4.23, 2.11 1.78, 8.69 0" stroke="#1e1e1e" stroke-width="2" fill="none"></path></g><g transform="translate(697.4432373046875 204.41577936808264) rotate(0 37.5 9.600000000000009)"><text x="37.5" y="0" font-family="Cascadia, Segoe UI Emoji" font-size="16px" fill="#1e1e1e" text-anchor="middle" style="white-space: pre;" direction="ltr" dominant-baseline="text-before-edge">{{name}}</text></g><g stroke-linecap="round" transform="translate(665.1622314453125 240.8125424702962) rotate(0 69.781005859375 24.5)"><path d="M12.25 0 C48.61 -1.39, 83.2 -1.17, 127.31 0 M12.25 0 C37.54 -0.91, 61.52 -0.79, 127.31 0 M127.31 0 C135.31 1.59, 139.33 5.85, 139.56 12.25 M127.31 0 C135.88 1.06, 141.6 3.24, 139.56 12.25 M139.56 12.25 C139.87 17.37, 139.01 24.24, 139.56 36.75 M139.56 12.25 C139.93 20.98, 140.12 29.83, 139.56 36.75 M139.56 36.75 C139.01 44.08, 134.68 48.98, 127.31 49 M139.56 36.75 C139.62 43.03, 134.11 49.01, 127.31 49 M127.31 49 C89.57 50.2, 51.17 51.31, 12.25 49 M127.31 49 C88.87 48.89, 50.06 48.31, 12.25 49 M12.25 49 C5.69 48.76, -0.54 44.94, 0 36.75 M12.25 49 C5.89 47.21, -1.18 43.26, 0 36.75 M0 36.75 C-1.01 30.24, 1.72 24.22, 0 12.25 M0 36.75 C-0.25 26.56, -0.56 17.41, 0 12.25 M0 12.25 C0.01 5.71, 5.4 -1.35, 12.25 0 M0 12.25 C-1.6 4.71, 2.67 1.21, 12.25 0" stroke="#1e1e1e" stroke-width="2" fill="none"></path></g><g transform="translate(674.0057373046875 246.1125424702962) rotate(0 60.9375 19.19999999999999)"><text x="60.9375" y="0" font-family="Cascadia, Segoe UI Emoji" font-size="16px" fill="#1e1e1e" text-anchor="middle" style="white-space: pre;" direction="ltr" dominant-baseline="text-before-edge">{{#}}...{{/}}</text><text x="60.9375" y="19.2" font-family="Cascadia, Segoe UI Emoji" font-size="16px" fill="#1e1e1e" text-anchor="middle" style="white-space: pre;" direction="ltr" dominant-baseline="text-before-edge">{{^}}...{{/}}</text></g><g stroke-linecap="round" transform="translate(80.0284851074216 192.0474769592285) rotate(0 69.781005859375 17.371475219726562)"><path d="M8.69 0 C55.74 -0.24, 104.12 -1.89, 130.88 0 M8.69 0 C56.8 1.11, 102.23 1.13, 130.88 0 M130.88 0 C135.03 0, 138.47 2.12, 139.56 8.69 M130.88 0 C135.83 -0.77, 139.72 4.35, 139.56 8.69 M139.56 8.69 C138.62 11.4, 139.15 14.43, 139.56 26.06 M139.56 8.69 C138.92 11.98, 140.35 16.11, 139.56 26.06 M139.56 26.06 C139.96 31.01, 137.8 36.66, 130.88 34.74 M139.56 26.06 C141.63 31.37, 134.99 36.66, 130.88 34.74 M130.88 34.74 C91.76 32.95, 52.43 34.82, 8.69 34.74 M130.88 34.74 C91.68 34.54, 51.92 33.63, 8.69 34.74 M8.69 34.74 C3.55 34.91, -1.76 30.45, 0 26.06 M8.69 34.74 C0.82 32.78, 2.04 33.86, 0 26.06 M0 26.06 C1.44 20.56, 1.21 14.86, 0 8.69 M0 26.06 C-0.81 18.92, 0.45 12.15, 0 8.69 M0 8.69 C-1.55 1.12, 3.39 1.07, 8.69 0 M0 8.69 C-0.51 2.93, 2.44 -1.21, 8.69 0" stroke="#1e1e1e" stroke-width="2" fill="none"></path></g><g transform="translate(93.5594909667966 199.81895217895507) rotate(0 56.25 9.599999999999994)"><text x="56.25" y="0" font-family="Cascadia, Segoe UI Emoji" font-size="16px" fill="#1e1e1e" text-anchor="middle" style="white-space: pre;" direction="ltr" dominant-baseline="text-before-edge">JSONata code</text></g><g stroke-linecap="round"><g transform="translate(221.06666259765598 209.9695263797969) rotate(0 58.85247802734375 -0.6766497423556075)"><path d="M1.09 -0.25 C20.88 -0.63, 98.63 -2.3, 118 -2.46 M0.2 -1.42 C19.92 -1.68, 97.85 -1.77, 117.21 -1.5" stroke="#1e1e1e" stroke-width="2" fill="none"></path></g><g transform="translate(221.06666259765598 209.9695263797969) rotate(0 58.85247802734375 -0.6766497423556075)"><path d="M117.81 -2.35 L102.59 3.63 L105.38 -6.11 L118.48 -3.41" stroke="none" stroke-width="0" fill="#1e1e1e" fill-rule="evenodd"></path><path d="M117.21 -1.5 C113.63 0.5, 109.29 1.17, 103.59 4.77 M117.21 -1.5 C113.19 0.51, 108.96 2.51, 103.59 4.77 M103.59 4.77 C104.31 -0.83, 104.22 -4.77, 103.65 -7.91 M103.59 4.77 C104.07 0.68, 103.47 -3.89, 103.65 -7.91 M103.65 -7.91 C108.56 -5.29, 114.04 -4.41, 117.21 -1.5 M103.65 -7.91 C107.59 -5.6, 112.25 -4.12, 117.21 -1.5 M117.21 -1.5 C117.21 -1.5, 117.21 -1.5, 117.21 -1.5 M117.21 -1.5 C117.21 -1.5, 117.21 -1.5, 117.21 -1.5" stroke="#1e1e1e" stroke-width="2" fill="none"></path></g></g><mask></mask><g stroke-linecap="round"><g transform="translate(512.4192810058596 168.34714733489133) rotate(0 55.39064636230444 -0.38383399780660454)"><path d="M-0.51 -0.6 C17.89 -0.61, 91.37 0.17, 110.1 0.27 M1.42 1.7 C20.25 1.34, 94.08 -0.7, 112.45 -1.31" stroke="#1e1e1e" stroke-width="1" fill="none"></path></g><g transform="translate(512.4192810058596 168.34714733489133) rotate(0 55.39064636230444 -0.38383399780660454)"><path d="M112.81 -0.59 L97.57 6.64 L100.43 -6.88 L110.53 -0.68" stroke="none" stroke-width="0" fill="#1e1e1e" fill-rule="evenodd"></path><path d="M112.45 -1.31 C108.08 -0.39, 106.48 3.65, 99.05 5.43 M112.45 -1.31 C107.57 1.51, 103.38 2.93, 99.05 5.43 M99.05 5.43 C100.09 1.28, 98.71 -1.42, 98.67 -7.24 M99.05 5.43 C99.07 2.41, 99.07 -0.48, 98.67 -7.24 M98.67 -7.24 C103.68 -3.97, 107.79 -2.83, 112.45 -1.31 M98.67 -7.24 C103.57 -4.34, 109.65 -2.82, 112.45 -1.31 M112.45 -1.31 C112.45 -1.31, 112.45 -1.31, 112.45 -1.31 M112.45 -1.31 C112.45 -1.31, 112.45 -1.31, 112.45 -1.31" stroke="#1e1e1e" stroke-width="1" fill="none"></path></g></g><mask></mask><g stroke-linecap="round"><g transform="translate(511.8953857421875 213.75538824083162) rotate(0 56.057287597656114 0.6046407094081303)"><path d="M0.4 -0.22 C19.17 0.18, 93.55 1.82, 112.02 2.06 M-0.84 -1.37 C17.8 -1.29, 91.95 -0.28, 111.03 0.38" stroke="#1e1e1e" stroke-width="1" fill="none"></path></g><g transform="translate(511.8953857421875 213.75538824083162) rotate(0 56.057287597656114 0.6046407094081303)"><path d="M110.59 1.78 L95.61 8.21 L95.95 -7.96 L110.62 1.84" stroke="none" stroke-width="0" fill="#1e1e1e" fill-rule="evenodd"></path><path d="M111.03 0.38 C107.25 1.84, 105.08 2.37, 97.29 6.41 M111.03 0.38 C107.29 2.49, 102.71 3.58, 97.29 6.41 M97.29 6.41 C97.59 2.15, 96.84 -2.37, 97.58 -6.26 M97.29 6.41 C96.85 1.68, 98.04 -3.75, 97.58 -6.26 M97.58 -6.26 C100.85 -4.08, 105.54 -3.14, 111.03 0.38 M97.58 -6.26 C100.47 -4.6, 103.52 -3.58, 111.03 0.38 M111.03 0.38 C111.03 0.38, 111.03 0.38, 111.03 0.38 M111.03 0.38 C111.03 0.38, 111.03 0.38, 111.03 0.38" stroke="#1e1e1e" stroke-width="1" fill="none"></path></g></g><mask></mask><g stroke-linecap="round"><g transform="translate(513.5048828125 266.14735109831787) rotate(0 56.21423034667964 -0.2821889705327294)"><path d="M-0.58 0.02 C18.31 -0.16, 93.94 -1.17, 112.88 -1.11 M1.31 -1.01 C20.13 -1.04, 93.62 0.21, 112.16 0.13" stroke="#1e1e1e" stroke-width="1" fill="none"></path></g><g transform="translate(513.5048828125 266.14735109831787) rotate(0 56.21423034667964 -0.2821889705327294)"><path d="M113.28 0.37 L100.23 4.85 L99.52 -5.14 L113.47 0.23" stroke="none" stroke-width="0" fill="#1e1e1e" fill-rule="evenodd"></path><path d="M112.16 0.13 C108.65 2.24, 104.4 4.04, 98.52 6.37 M112.16 0.13 C106.62 1.86, 102.23 4.65, 98.52 6.37 M98.52 6.37 C98.37 1.86, 98.57 -1.62, 98.62 -6.31 M98.52 6.37 C99.12 2.58, 98.72 -0.8, 98.62 -6.31 M98.62 -6.31 C101.7 -5.58, 105.16 -4.36, 112.16 0.13 M98.62 -6.31 C104 -4.01, 108.46 -0.85, 112.16 0.13 M112.16 0.13 C112.16 0.13, 112.16 0.13, 112.16 0.13 M112.16 0.13 C112.16 0.13, 112.16 0.13, 112.16 0.13" stroke="#1e1e1e" stroke-width="1" fill="none"></path></g></g><mask></mask><g stroke-linecap="round" transform="translate(629.038208007812 53.52359695434569) rotate(0 107.261962890625 17.94762420654297)"><path d="M8.97 0 C55.22 -3.48, 97.91 -2.31, 205.55 0 M8.97 0 C60.2 1.44, 111.42 0.74, 205.55 0 M205.55 0 C211.58 1.13, 216.02 4.75, 214.52 8.97 M205.55 0 C210.99 -1.67, 212.74 4.82, 214.52 8.97 M214.52 8.97 C215.33 13.17, 214.01 16.4, 214.52 26.92 M214.52 8.97 C213.61 16.5, 214.75 22.34, 214.52 26.92 M214.52 26.92 C215.4 34.55, 212.45 36.37, 205.55 35.9 M214.52 26.92 C212.62 35.06, 212.44 37.7, 205.55 35.9 M205.55 35.9 C132.48 34.43, 55.91 32.91, 8.97 35.9 M205.55 35.9 C154.48 37.13, 102.22 37.28, 8.97 35.9 M8.97 35.9 C3.28 36.03, 0.99 33, 0 26.92 M8.97 35.9 C1.23 34.46, 0.11 31.81, 0 26.92 M0 26.92 C-0.81 22.63, -0.53 15.28, 0 8.97 M0 26.92 C-0.28 21.43, 0.87 16.3, 0 8.97 M0 8.97 C-1.54 1.49, 2.22 -1.41, 8.97 0 M0 8.97 C-1.23 4.25, 4.15 2.04, 8.97 0" stroke="#1e1e1e" stroke-width="2" fill="none"></path></g><g transform="translate(656.612670898437 61.871221160888666) rotate(0 79.6875 9.600000000000001)"><text x="79.6875" y="0" font-family="Cascadia, Segoe UI Emoji" font-size="16px" fill="#1e1e1e" text-anchor="middle" style="white-space: pre;" direction="ltr" dominant-baseline="text-before-edge">hard coded values</text></g><g stroke-linecap="round" transform="translate(626.9333435058593 112.72360153198241) rotate(0 111.22872924804688 95.23816490173337)"><path d="M32 0 C84.34 -2.66, 137.61 -1.92, 190.46 0 M32 0 C83.83 0.5, 135.91 1.85, 190.46 0 M190.46 0 C210.71 -1.29, 222.36 11.25, 222.46 32 M190.46 0 C210.41 -1.87, 222.16 9.31, 222.46 32 M222.46 32 C221.81 79.08, 221.45 128.07, 222.46 158.48 M222.46 32 C223.58 75, 222.45 119.03, 222.46 158.48 M222.46 158.48 C220.5 178.48, 212.27 188.64, 190.46 190.48 M222.46 158.48 C222.92 179.86, 212.53 189.64, 190.46 190.48 M190.46 190.48 C144.02 190.48, 98.72 190.27, 32 190.48 M190.46 190.48 C154.33 189.35, 118.32 190.3, 32 190.48 M32 190.48 C11.06 192.27, -1.57 178.5, 0 158.48 M32 190.48 C12.12 189.35, -1.39 179.35, 0 158.48 M0 158.48 C-1.8 109.35, 0.64 59.79, 0 32 M0 158.48 C-2.05 116.89, -0.77 72.79, 0 32 M0 32 C1.03 10.11, 9.21 -0.77, 32 0 M0 32 C0.03 10.6, 9.33 2.14, 32 0" stroke="#1e1e1e" stroke-width="2" fill="none"></path></g><g transform="translate(695.9745727539062 117.72360153198241) rotate(0 42.1875 9.599999999999994)"><text x="42.1875" y="0" font-family="Cascadia, Segoe UI Emoji" font-size="16px" fill="#1e1e1e" text-anchor="middle" style="white-space: pre;" direction="ltr" dominant-baseline="text-before-edge">mustaches</text></g><g stroke-linecap="round" transform="translate(993.9667358398438 53.52359695434569) rotate(0 107.261962890625 17.94762420654297)"><path d="M8.97 0 C61.67 0.92, 113 0.88, 205.55 0 M8.97 0 C86.82 1.28, 166.75 1.93, 205.55 0 M205.55 0 C211.6 1.92, 215.66 2.88, 214.52 8.97 M205.55 0 C210 -2.07, 216.58 2.64, 214.52 8.97 M214.52 8.97 C213.24 12.64, 214.59 15.53, 214.52 26.92 M214.52 8.97 C214.46 12.51, 214.47 17.24, 214.52 26.92 M214.52 26.92 C214.47 32.71, 212.19 35.58, 205.55 35.9 M214.52 26.92 C213.08 34.54, 210.7 34.55, 205.55 35.9 M205.55 35.9 C156.68 36.43, 110.2 38.66, 8.97 35.9 M205.55 35.9 C145.26 34.54, 85.7 33.36, 8.97 35.9 M8.97 35.9 C1.9 36.89, 0.86 32.17, 0 26.92 M8.97 35.9 C1.34 37.87, 1.67 31.49, 0 26.92 M0 26.92 C1.58 23.15, -0.02 15.78, 0 8.97 M0 26.92 C0.71 22.62, 0.02 18.57, 0 8.97 M0 8.97 C-1.87 3.09, 2.89 -0.34, 8.97 0 M0 8.97 C1.64 3.49, 3.97 -1.07, 8.97 0" stroke="#1e1e1e" stroke-width="2" fill="none"></path></g><g transform="translate(1021.5411987304688 61.871221160888666) rotate(0 79.6875 9.600000000000001)"><text x="79.6875" y="0" font-family="Cascadia, Segoe UI Emoji" font-size="16px" fill="#1e1e1e" text-anchor="middle" style="white-space: pre;" direction="ltr" dominant-baseline="text-before-edge">hard coded values</text></g><g stroke-linecap="round" transform="translate(989.0475158691406 118.99031181335448) rotate(0 111.22872924804688 91.12389183044431)"><path d="M32 0 C82.82 -1.07, 131.74 0.96, 190.46 0 M32 0 C75.72 0.52, 119.09 1.19, 190.46 0 M190.46 0 C213.25 -0.05, 221.87 10.52, 222.46 32 M190.46 0 C213.05 1.32, 223.51 8.88, 222.46 32 M222.46 32 C224.42 77.49, 223.82 117.96, 222.46 150.25 M222.46 32 C222.58 57.12, 221.19 81.92, 222.46 150.25 M222.46 150.25 C221.63 170.9, 212.73 180.77, 190.46 182.25 M222.46 150.25 C223.18 170.25, 213.53 182.39, 190.46 182.25 M190.46 182.25 C145.23 183.23, 100.14 183.39, 32 182.25 M190.46 182.25 C136.27 183.34, 79.6 183.07, 32 182.25 M32 182.25 C11.09 182.34, 1.2 171.71, 0 150.25 M32 182.25 C10.15 182.54, 1.39 173.77, 0 150.25 M0 150.25 C1.48 102.76, 1.09 60.68, 0 32 M0 150.25 C-0.87 108.29, -1.27 68.29, 0 32 M0 32 C0.21 9.79, 11.18 1.76, 32 0 M0 32 C1.56 9.32, 11.34 1.97, 32 0" stroke="#1e1e1e" stroke-width="2" fill="none"></path></g><g transform="translate(1011.2137451171875 200.5142036437988) rotate(0 89.0625 9.599999999999994)"><text x="89.0625" y="0" font-family="Cascadia, Segoe UI Emoji" font-size="16px" fill="#1e1e1e" text-anchor="middle" style="white-space: pre;" direction="ltr" dominant-baseline="text-before-edge">interpolated values</text></g><g stroke-linecap="round"><g transform="translate(850.390802001953 202.74461244347464) rotate(0 68.76181335449223 1.6090618598642266)"><path d="M0.11 0.17 C22.87 0.73, 113.5 3.66, 136.38 4 M-1.29 -0.79 C21.84 -0.62, 115.52 1.66, 138.5 2.3" stroke="#1e1e1e" stroke-width="1" fill="none"></path></g><g transform="translate(850.390802001953 202.74461244347464) rotate(0 68.76181335449223 1.6090618598642266)"><path d="M137.24 4.23 L125.16 9.55 L125.42 -4.37 L136.91 2.45" stroke="none" stroke-width="0" fill="#1e1e1e" fill-rule="evenodd"></path><path d="M138.5 2.3 C134.84 2.58, 131.71 5.57, 124.75 8.29 M138.5 2.3 C135.59 2.77, 132.26 4.92, 124.75 8.29 M124.75 8.29 C124.79 3.3, 124.03 0.45, 125.07 -4.39 M124.75 8.29 C125.34 3.24, 125.6 -0.77, 125.07 -4.39 M125.07 -4.39 C129.11 -3.33, 130.04 -1.57, 138.5 2.3 M125.07 -4.39 C129.45 -2.01, 135.14 1.06, 138.5 2.3 M138.5 2.3 C138.5 2.3, 138.5 2.3, 138.5 2.3 M138.5 2.3 C138.5 2.3, 138.5 2.3, 138.5 2.3" stroke="#1e1e1e" stroke-width="1" fill="none"></path></g></g><mask></mask><g stroke-linecap="round"><g transform="translate(843.8571166992188 71.95280437796376) rotate(0 74.65719604492188 0.3048095703125)"><path d="M0.07 0.15 C24.85 -0.05, 123.36 -0.56, 148.25 -0.58 M-1.35 -0.82 C23.82 -0.97, 125.4 0.02, 150.4 0.34" stroke="#1e1e1e" stroke-width="1" fill="none"></path></g><g transform="translate(843.8571166992188 71.95280437796376) rotate(0 74.65719604492188 0.3048095703125)"><path d="M148.95 -0.14 L136.62 6.73 L136.62 -6.54 L151.78 0.79" stroke="none" stroke-width="0" fill="#1e1e1e" fill-rule="evenodd"></path><path d="M150.4 0.34 C146.94 0.67, 141.61 3.74, 136.73 6.53 M150.4 0.34 C146.87 2.48, 143.31 3.24, 136.73 6.53 M136.73 6.53 C136.78 1.65, 136.92 -2.33, 136.87 -6.15 M136.73 6.53 C136.71 2.15, 137.34 -3.35, 136.87 -6.15 M136.87 -6.15 C143.3 -2.81, 147.96 -0.67, 150.4 0.34 M136.87 -6.15 C140.69 -4.08, 145.05 -2.22, 150.4 0.34 M150.4 0.34 C150.4 0.34, 150.4 0.34, 150.4 0.34 M150.4 0.34 C150.4 0.34, 150.4 0.34, 150.4 0.34" stroke="#1e1e1e" stroke-width="1" fill="none"></path></g></g><mask></mask></svg>